<svg id="Camada_1" data-name="Camada 1" xmlns="http://www.w3.org/2000/svg" viewBox="0 0 286.82 308.53"><defs><style>.cls-1{fill:#6c4a3f;}.cls-2{fill:#896b60;}.cls-3{fill:#54b3cf;}</style></defs><path class="cls-1" d="M317.16,279.35A71.59,71.59,0,0,1,340,283.54c27.49,10.26,32.85,35.92,11.94,57.35-7.94,8.12-18.48,14.45-30,18.62,23.46.65,49.14-8.45,64.71-24.4,20.91-21.42,15.55-47.11-11.94-57.35C357.66,271.41,336.06,272.48,317.16,279.35Z" transform="translate(-112.59 -101.74)"/><path class="cls-2" d="M367.23,250.91c-.36,88.3-57.66,159.64-128,159.35C176,410,123.74,351.83,114.17,275.88a202.37,202.37,0,0,1-1.58-26c-.06,15.66,56.89,28.61,127.21,28.9,37.67.16,71.52-3.35,94.86-9.05,5.94-3.67,9.26-7.7,9.27-11.95.08-17.7-56.86-32.27-127.18-32.56a448.34,448.34,0,0,0-62.57,3.88c22.64-4.5,52.78-7.19,85.85-7.05C310.35,222.32,367.3,235.23,367.23,250.91Z" transform="translate(-112.59 -101.74)"/><path class="cls-1" d="M367.23,250.91c-.36,88.3-57.66,159.64-128,159.35C176,410,123.74,351.84,114.16,275.87a202,202,0,0,1-1.57-26c-.06,15.67,56.89,28.61,127.21,28.9,37.66.15,71.52-3.36,94.85-9.05C354.88,264.77,367.2,258.19,367.23,250.91Z" transform="translate(-112.59 -101.74)"/><path class="cls-3" d="M275.29,121.75s7.8,19.52-23.87,54.24-25.58,67.09-16.91,77.49c0,0,2.61-30.68,38-61.65S275.29,121.75,275.29,121.75Z" transform="translate(-112.59 -101.74)"/><path class="cls-3" d="M240.37,101.74s5.92,14.83-18.13,41.19-19.42,50.95-12.84,58.85c0,0,2-23.3,28.86-46.82S240.37,101.74,240.37,101.74Z" transform="translate(-112.59 -101.74)"/></svg>
