<svg width="24" height="24" viewBox="0 0 24 24" fill="none" xmlns="http://www.w3.org/2000/svg">
<path d="M19.842 8.29925L19.228 9.08858L19.2284 9.08889L19.842 8.29925ZM13.842 3.63225L13.2278 4.42137L13.228 4.42158L13.842 3.63225ZM10.158 3.63225L9.54411 2.84286L9.54403 2.84292L10.158 3.63225ZM4.158 8.29925L4.77157 9.08889L4.77197 9.08858L4.158 8.29925ZM16.7071 14.9454C17.0976 14.5548 17.0976 13.9217 16.7071 13.5311C16.3166 13.1406 15.6834 13.1406 15.2929 13.5311L16.7071 14.9454ZM8.70743 13.5315C8.31708 13.1408 7.68391 13.1405 7.29321 13.5308C6.90251 13.9212 6.90223 14.5543 7.29257 14.945L8.70743 13.5315ZM20.456 7.50992L14.456 2.84292L13.228 4.42158L19.228 9.08858L20.456 7.50992ZM14.4562 2.84313C13.0118 1.71883 10.989 1.71918 9.54411 2.84286L10.7719 4.42164C11.495 3.85932 12.5062 3.85967 13.2278 4.42137L14.4562 2.84313ZM9.54403 2.84292L3.54403 7.50992L4.77197 9.08858L10.772 4.42158L9.54403 2.84292ZM3.54443 7.50961C2.56917 8.2674 2 9.43307 2 10.6673H4C4 10.0494 4.28483 9.4671 4.77157 9.08889L3.54443 7.50961ZM2 10.6673V18.0002H4V10.6673H2ZM2 18.0002C2 20.2095 3.79072 22.0002 6 22.0002V20.0002C4.89528 20.0002 4 19.105 4 18.0002H2ZM6 22.0002H18V20.0002H6V22.0002ZM18 22.0002C20.2093 22.0002 22 20.2095 22 18.0002H20C20 19.105 19.1047 20.0002 18 20.0002V22.0002ZM22 18.0002V10.6673H20V18.0002H22ZM22 10.6673C22 9.43307 21.4308 8.2674 20.4556 7.50961L19.2284 9.08889C19.7152 9.4671 20 10.0494 20 10.6673H22ZM15.2929 13.5311C13.4732 15.3508 10.5247 15.3503 8.70743 13.5315L7.29257 14.945C9.89135 17.5462 14.1068 17.5457 16.7071 14.9454L15.2929 13.5311Z" fill="#323232"/>
</svg>
